<svg xmlns="http://www.w3.org/2000/svg" viewBox="0 0 800 800"><defs><style>.cls-1{isolation:isolate;}.cls-2{fill:#0d0504;}.cls-3{fill:#fff;}</style></defs><title>Asset 10</title><g id="Layer_2" data-name="Layer 2"><g id="Artboard_1" data-name="Artboard 1" class="cls-1"><rect id="rectangle" class="cls-2" width="800" height="800"/><path id="T" class="cls-3" d="M800,229H434v71.84H565.63l-.44,268H637s.45-169.87.45-268H800Z"/><path id="S" class="cls-3" d="M410.59,466.69a102.14,102.14,0,0,0-99.88-102.11v-.06h-139a28,28,0,0,1-28-28v-7.67a28,28,0,0,1,28-28H384V229H176.92c-57.33,0-106.29,46.34-106.29,103.67S120,436.36,176.87,436.35h138.8a28,28,0,0,1,28,28V472a28,28,0,0,1-28,28H0v68.83H310.71v-.05A102.16,102.16,0,0,0,410.59,466.69Z"/></g></g></svg>